<!-- Generator: Adobe Illustrator 28.7.3, SVG Export Plug-In . SVG Version: 9.03 Build 54978)  -->
<svg version="1.1" id="Layer_1" xmlns="http://www.w3.org/2000/svg" xmlns:xlink="http://www.w3.org/1999/xlink" x="0px" y="0px" viewBox="0 0 48 48" style="enable-background:new 0 0 48 48;" xml:space="preserve" width="48px" height="48px">
<g>
	<path style="fill:none;stroke:#000000;stroke-width:3;stroke-linecap:round;stroke-linejoin:round;stroke-miterlimit:10;" d="   M22.855,7.635c-7.556,0.952-13.569,7.189-14.28,14.771c-0.188,2.008-0.016,3.95,0.459,5.771c0.696,2.667,0.432,5.502-0.659,8.033   c-1.01,2.34-2.782,5.197-5.875,8.29l14.396-13.761l-0.137-0.232C15.344,28.718,14.5,26.458,14.5,24c0-5.799,4.701-10.5,10.5-10.5   c0.04,0,0.078,0.005,0.117,0.005l6.638-4.552C29.088,7.754,26.049,7.233,22.855,7.635z" />
</g>
<g>
	<path style="fill:none;stroke:#000000;stroke-width:3;stroke-linecap:round;stroke-linejoin:round;stroke-miterlimit:10;" d="   M45.5,3.5L20.222,27.558l11.991-7.287c1.155-0.702,2.667-0.083,2.988,1.23c0.275,1.125,0.368,2.322,0.247,3.557   c-0.467,4.768-4.242,8.704-8.99,9.343c-0.99,0.133-1.953,0.115-2.882-0.011l-6.18,4.238c2.892,1.507,6.278,2.196,9.858,1.722   c7.332-0.971,13.207-6.904,14.115-14.244c0.311-2.51,0.057-4.927-0.651-7.14C40.718,18.967,38.5,11.5,45.5,3.5z" />
</g>
</svg>